<svg width="44" height="44" viewBox="0 0 44 44" fill="none" xmlns="http://www.w3.org/2000/svg">
<mask id="mask0_17_341" style="mask-type:alpha" maskUnits="userSpaceOnUse" x="0" y="0" width="44" height="44">
<rect width="44" height="44" fill="#D9D9D9"/>
</mask>
<g mask="url(#mask0_17_341)">
<path d="M20.0746 30.3417L30.4329 19.9834L27.8204 17.3709L20.0746 25.1167L16.1788 21.2209L13.5663 23.8334L20.0746 30.3417ZM21.9996 40.3334C19.7079 40.3334 17.5614 39.8979 15.56 39.0271C13.5586 38.1563 11.817 36.9799 10.335 35.4979C8.85308 34.016 7.67669 32.2743 6.80586 30.2729C5.93503 28.2715 5.49961 26.125 5.49961 23.8334C5.49961 21.5417 5.93503 19.3952 6.80586 17.3938C7.67669 15.3924 8.85308 13.6507 10.335 12.1688C11.817 10.6868 13.5586 9.51043 15.56 8.6396C17.5614 7.76877 19.7079 7.33335 21.9996 7.33335C24.2913 7.33335 26.4378 7.76877 28.4392 8.6396C30.4406 9.51043 32.1823 10.6868 33.6642 12.1688C35.1461 13.6507 36.3225 15.3924 37.1934 17.3938C38.0642 19.3952 38.4996 21.5417 38.4996 23.8334C38.4996 26.125 38.0642 28.2715 37.1934 30.2729C36.3225 32.2743 35.1461 34.016 33.6642 35.4979C32.1823 36.9799 30.4406 38.1563 28.4392 39.0271C26.4378 39.8979 24.2913 40.3334 21.9996 40.3334ZM10.2663 4.30835L12.8329 6.87502L5.04128 14.6667L2.47461 12.1L10.2663 4.30835ZM33.7329 4.30835L41.5246 12.1L38.9579 14.6667L31.1663 6.87502L33.7329 4.30835ZM21.9996 36.6667C25.5746 36.6667 28.6073 35.4215 31.0975 32.9313C33.5878 30.441 34.8329 27.4084 34.8329 23.8334C34.8329 20.2584 33.5878 17.2257 31.0975 14.7354C28.6073 12.2452 25.5746 11 21.9996 11C18.4246 11 15.392 12.2452 12.9017 14.7354C10.4114 17.2257 9.16628 20.2584 9.16628 23.8334C9.16628 27.4084 10.4114 30.441 12.9017 32.9313C15.392 35.4215 18.4246 36.6667 21.9996 36.6667Z" fill="#005BF3"/>
</g>
</svg>
