<svg width="20" height="20" viewBox="0 0 20 20" fill="none" xmlns="http://www.w3.org/2000/svg">
<path d="M10.2634 0.156931L11.1472 1.04081C11.3564 1.25001 11.3564 1.58921 11.1472 1.79845L4.2218 8.72384H19.4643C19.7601 8.72384 20 8.96371 20 9.25955V10.5096C20 10.8054 19.7601 11.0453 19.4643 11.0453H4.2218L11.1472 17.9707C11.3564 18.1799 11.3564 18.5191 11.1472 18.7283L10.2634 19.6122C10.0542 19.8214 9.71497 19.8214 9.50572 19.6122L0.156897 10.2634C-0.0522995 10.0542 -0.0522995 9.715 0.156897 9.50576L9.50577 0.156931C9.71497 -0.0523102 10.0542 -0.0523102 10.2634 0.156931Z" fill="white"/>
</svg>
