<svg width="20" height="20" viewBox="0 0 20 20" fill="none" xmlns="http://www.w3.org/2000/svg">
<path d="M9.73664 19.8431L8.85276 18.9592C8.64356 18.75 8.64356 18.4108 8.85276 18.2016L15.7782 11.2762L0.535714 11.2762C0.239867 11.2762 7.83632e-07 11.0363 8.09496e-07 10.7404L9.18774e-07 9.49045C9.44638e-07 9.1946 0.239867 8.95473 0.535715 8.95473L15.7782 8.95474L8.85276 2.0293C8.64356 1.8201 8.64356 1.4809 8.85276 1.27166L9.73664 0.38778C9.94584 0.178584 10.285 0.178584 10.4943 0.38778L19.8431 9.73661C20.0523 9.94581 20.0523 10.285 19.8431 10.4942L10.4942 19.8431C10.285 20.0523 9.94584 20.0523 9.73664 19.8431Z" fill="white"/>
</svg>
