<svg width="26" height="26" viewBox="0 0 26 26" fill="none" xmlns="http://www.w3.org/2000/svg">
<g clip-path="url(#clip0_42_2)">
<path d="M12.137 0H13.864C14.172 0.039 14.481 0.0730044 14.788 0.117004C17.5592 0.509991 20.1306 1.78368 22.1225 3.75002C24.1144 5.71635 25.4212 8.27109 25.85 11.037C25.908 11.402 25.95 11.77 26.001 12.137V13.864C25.963 14.173 25.931 14.483 25.886 14.791C25.5813 16.9512 24.7381 19.0001 23.434 20.749C23.211 21.049 22.967 21.332 22.699 21.666C22.3199 20.0168 21.5289 18.4906 20.3998 17.2301C19.2708 15.9695 17.8407 15.0158 16.243 14.458C16.9515 14.0086 17.5588 13.4168 18.0265 12.7203C18.4941 12.0237 18.8119 11.2376 18.9596 10.4117C19.1073 9.58584 19.0818 8.73827 18.8846 7.92279C18.6874 7.10731 18.3229 6.34172 17.8141 5.67459C17.3053 5.00747 16.6635 4.45337 15.9292 4.04745C15.195 3.64154 14.3844 3.39268 13.5488 3.31665C12.7133 3.24062 11.8711 3.33909 11.0756 3.6058C10.2802 3.87252 9.54882 4.30166 8.928 4.866C8.33997 5.3861 7.86313 6.01971 7.52615 6.72874C7.18916 7.43778 6.99897 8.20761 6.967 8.992C6.90036 10.0672 7.12342 11.1407 7.61292 12.1003C8.10243 13.06 8.84044 13.8707 9.75 14.448C8.15691 15.0105 6.73058 15.964 5.60188 17.2212C4.47317 18.4783 3.67824 19.9987 3.29 21.643C3.111 21.427 2.95 21.243 2.8 21.051C1.45641 19.3647 0.561915 17.3655 0.200001 15.24C0.122001 14.783 0.068 14.323 0 13.864V12.137C0.039 11.829 0.073 11.519 0.118 11.212C0.510834 8.44072 1.78448 5.86922 3.75084 3.87729C5.7172 1.88536 8.27202 0.578598 11.038 0.149994C11.4 0.0929939 11.771 0.05 12.137 0Z" fill="#021A7C"/>
<path d="M12.1369 26.002C11.6869 25.939 11.2369 25.889 10.7859 25.811C8.65417 25.438 6.64808 24.5427 4.94688 23.205C4.83257 23.1354 4.74419 23.0302 4.69526 22.9056C4.64633 22.781 4.63952 22.6439 4.67588 22.515C5.00674 20.4907 6.07106 18.659 7.66589 17.369C8.52242 16.6319 9.52564 16.0849 10.6092 15.7643C11.6929 15.4437 12.8322 15.3567 13.9519 15.509C15.5379 15.6633 17.0445 16.2763 18.2877 17.2732C19.5309 18.27 20.4566 19.6075 20.9519 21.122C21.1259 21.6681 21.2596 22.2263 21.3519 22.792C21.3551 22.8347 21.3487 22.8775 21.3331 22.9173C21.3175 22.9571 21.2932 22.9929 21.2619 23.022C19.464 24.5137 17.2955 25.4903 14.9869 25.848C14.6129 25.906 14.2369 25.948 13.8609 26.002H12.1369Z" fill="#021A7C"/>
<path d="M17.5348 9.33696C17.5323 10.2339 17.2638 11.1099 16.7633 11.8543C16.2629 12.5986 15.5529 13.1778 14.7233 13.5187C13.8937 13.8596 12.9815 13.9467 12.1024 13.7692C11.2232 13.5917 10.4163 13.1575 9.78393 12.5215C9.15152 11.8854 8.72193 11.0761 8.54947 10.1959C8.377 9.31574 8.46943 8.40417 8.81505 7.5765C9.16066 6.74882 9.74395 6.04221 10.4911 5.54604C11.2383 5.04987 12.1159 4.78639 13.0128 4.78896C13.6085 4.79014 14.1981 4.90878 14.7479 5.13808C15.2977 5.36738 15.7969 5.70284 16.2169 6.12526C16.6369 6.54769 16.9695 7.04877 17.1957 7.59987C17.4218 8.15098 17.5371 8.74127 17.5348 9.33696Z" fill="#021A7C"/>
</g>
<defs>
<clipPath id="clip0_42_2">
<rect width="26" height="26" fill="white"/>
</clipPath>
</defs>
</svg>
