<svg width="40" height="40" viewBox="0 0 40 40" fill="none" xmlns="http://www.w3.org/2000/svg">
<circle cx="20" cy="20" r="20" fill="#005BF3" fill-opacity="0.04"/>
<circle cx="20" cy="20" r="15" fill="#CADBF8"/>
<mask id="mask0_118_169" style="mask-type:alpha" maskUnits="userSpaceOnUse" x="9" y="9" width="22" height="22">
<rect x="9" y="9" width="22" height="22" fill="#005BF3"/>
</mask>
<g mask="url(#mask0_118_169)">
<path d="M12.6663 27.3333C12.1622 27.3333 11.7306 27.1538 11.3715 26.7948C11.0125 26.4358 10.833 26.0042 10.833 25.5V14.5C10.833 13.9958 11.0125 13.5642 11.3715 13.2052C11.7306 12.8462 12.1622 12.6667 12.6663 12.6667H27.333C27.8372 12.6667 28.2688 12.8462 28.6278 13.2052C28.9868 13.5642 29.1663 13.9958 29.1663 14.5V25.5C29.1663 26.0042 28.9868 26.4358 28.6278 26.7948C28.2688 27.1538 27.8372 27.3333 27.333 27.3333H12.6663ZM19.9997 20.9167L12.6663 16.3333V25.5H27.333V16.3333L19.9997 20.9167ZM19.9997 19.0833L27.333 14.5H12.6663L19.9997 19.0833ZM12.6663 16.3333V14.5V25.5V16.3333Z" fill="#005BF3"/>
</g>
</svg>
