<svg width="28" height="28" viewBox="0 0 28 28" fill="none" xmlns="http://www.w3.org/2000/svg">
<mask id="mask0_17_294" style="mask-type:alpha" maskUnits="userSpaceOnUse" x="0" y="0" width="28" height="28">
<rect width="28" height="28" fill="#D9D9D9"/>
</mask>
<g mask="url(#mask0_17_294)">
<path d="M14.0003 14C14.642 14 15.1913 13.7715 15.6482 13.3146C16.1052 12.8576 16.3337 12.3083 16.3337 11.6667C16.3337 11.025 16.1052 10.4757 15.6482 10.0188C15.1913 9.56181 14.642 9.33334 14.0003 9.33334C13.3587 9.33334 12.8094 9.56181 12.3524 10.0188C11.8955 10.4757 11.667 11.025 11.667 11.6667C11.667 12.3083 11.8955 12.8576 12.3524 13.3146C12.8094 13.7715 13.3587 14 14.0003 14ZM14.0003 22.575C16.3725 20.3972 18.1323 18.4188 19.2795 16.6396C20.4267 14.8604 21.0003 13.2806 21.0003 11.9C21.0003 9.78056 20.3246 8.04514 18.9732 6.69375C17.6219 5.34236 15.9642 4.66667 14.0003 4.66667C12.0364 4.66667 10.3788 5.34236 9.02741 6.69375C7.67602 8.04514 7.00033 9.78056 7.00033 11.9C7.00033 13.2806 7.57394 14.8604 8.72116 16.6396C9.86838 18.4188 11.6281 20.3972 14.0003 22.575ZM14.0003 25.6667C10.8698 23.0028 8.53158 20.5285 6.98574 18.2438C5.43991 15.959 4.66699 13.8444 4.66699 11.9C4.66699 8.98334 5.60519 6.65972 7.48158 4.92917C9.35796 3.19861 11.5309 2.33334 14.0003 2.33334C16.4698 2.33334 18.6427 3.19861 20.5191 4.92917C22.3955 6.65972 23.3337 8.98334 23.3337 11.9C23.3337 13.8444 22.5607 15.959 21.0149 18.2438C19.4691 20.5285 17.1309 23.0028 14.0003 25.6667Z" fill="#021A7C"/>
</g>
</svg>
