<svg width="222" height="34" viewBox="0 0 222 34" fill="none" xmlns="http://www.w3.org/2000/svg">
<g clip-path="url(#clip0_17_302)">
<path d="M40.5394 9.73199C39.4472 6.94915 37.8659 4.47498 35.6198 2.48519C33.6348 0.728107 31.251 0.238972 28.6772 0.623632C26.659 0.92756 25.0682 2.01031 23.6674 3.44922C21.1553 6.02786 18.6101 8.57326 16.0838 11.1377C15.4997 11.7313 14.8824 12.2964 14.3695 12.947C12.755 14.9938 12.3798 17.2257 13.4815 19.6429C13.7332 20.1938 14.379 20.9916 14.7494 21.419C14.8871 21.5757 15.1198 21.6042 15.2907 21.4855L15.3335 21.457C15.6279 21.248 16.0315 21.5045 15.9698 21.8606L15.6421 23.7507C15.6326 24.0784 15.5757 24.4013 15.4759 24.71L15.0391 27.2126C15.0011 27.4358 14.7874 27.583 14.5689 27.5451L9.22195 26.6095C8.8658 26.5478 8.76133 26.0824 9.0605 25.8782L9.15547 25.8117C9.35492 25.6692 9.38341 25.3938 9.22195 25.2086C8.32921 24.1876 7.66914 23.0289 7.15629 21.7609C5.89314 18.6267 5.84091 15.5019 7.12304 12.3724C8.81832 8.22185 12.6172 5.31078 15.7086 2.22875C15.8321 2.10528 15.9461 1.96757 16.136 1.74912C15.8796 1.6019 15.7181 1.49743 15.5472 1.41195C14.1796 0.732856 12.7455 0.438425 11.2306 0.533403C9.36916 0.647376 7.67389 1.19825 6.28253 2.47095C5.64146 3.05506 5.05263 3.70091 4.49229 4.361C2.74953 6.40302 1.62884 8.77747 0.826317 11.3181C0.427429 12.5813 0.270723 13.8873 0.114018 15.198C-0.075929 16.8126 -0.0189451 18.4177 0.213739 20.0086C0.736092 23.5417 2.20818 26.6713 4.4258 29.4494C5.1571 30.3659 5.92638 31.2777 6.90461 31.9473C10.2144 34.2077 14.2365 33.9466 17.0667 31.5294C17.8503 30.8598 18.5531 30.1 19.2796 29.3686C21.8819 26.7377 24.4747 24.0879 27.0864 21.4665C27.4901 21.0628 27.8557 20.6164 28.1359 20.1131C29.3515 17.9523 29.475 15.7346 28.0504 13.6688C27.8367 13.3601 27.3571 12.7333 26.9107 12.1729C26.7778 12.0067 26.5356 11.9687 26.3599 12.0922L26.1794 12.2157C25.885 12.4246 25.4814 12.1682 25.5431 11.812L26.4738 6.46476C26.5118 6.24156 26.7255 6.09435 26.944 6.13234L32.291 7.06787C32.6471 7.1296 32.7516 7.59499 32.4524 7.7992C32.253 7.93691 32.2245 8.2171 32.3859 8.39756C33.5351 9.72724 34.4041 11.2184 34.9787 12.8995C35.862 15.4924 35.9712 18.0948 35.1259 20.7209C33.6538 25.2941 29.3468 28.5946 26.0607 31.8903C25.9657 31.9853 25.8898 32.104 25.7948 32.2322C26.9772 32.8448 28.1501 33.3529 29.4608 33.4289C31.9111 33.5761 34.1049 32.9208 35.862 31.1827C39.1765 27.9107 41.1805 23.9549 41.7123 19.3105C42.0922 16.029 41.7408 12.814 40.5299 9.7225L40.5394 9.73199ZM20.9464 20.5784C19.0137 20.5784 17.2947 18.8451 17.3137 16.9835C17.3849 14.951 18.8855 13.3744 21.0129 13.3791C22.9218 13.3839 24.5791 15.084 24.5411 16.9883C24.4984 19.339 22.5942 20.5784 20.9417 20.5737L20.9464 20.5784Z" fill="#005BF3"/>
<path d="M54.0537 24.6196L56.0671 20.0987C57.9856 21.3666 60.7113 22.2357 63.2234 22.2357C65.7354 22.2357 66.7564 21.5233 66.7564 20.4691C66.7564 17.0309 54.4289 19.5383 54.4289 11.4842C54.4289 7.61384 57.5867 4.45108 64.0307 4.45108C66.8514 4.45108 69.7623 5.10168 71.8992 6.34114L70.0092 10.8953C67.934 9.77933 65.8874 9.22371 64.0022 9.22371C61.4284 9.22371 60.5024 10.0928 60.5024 11.1755C60.5024 14.4902 72.8014 12.0113 72.8014 20.0037C72.8014 23.7838 69.6436 27.0035 63.1996 27.0035C59.6381 27.0035 56.1051 26.0443 54.0632 24.6196H54.0537Z" fill="#021A7C"/>
<path d="M94.133 18.1754C94.133 23.5036 90.448 26.8468 85.894 26.8468C83.9423 26.8468 82.361 26.258 81.2166 25.0802V32.5787H75.333V9.77933H80.9412V11.4509C82.0571 10.1212 83.7002 9.49915 85.8988 9.49915C90.4528 9.49915 94.1377 12.8424 94.1377 18.1706L94.133 18.1754ZM88.1876 18.1754C88.1876 15.6347 86.6396 14.1768 84.6546 14.1768C82.6697 14.1768 81.1216 15.6347 81.1216 18.1754C81.1216 20.716 82.6697 22.1739 84.6546 22.1739C86.6396 22.1739 88.1876 20.716 88.1876 18.1754Z" fill="#021A7C"/>
<path d="M95.8086 18.1468C95.8086 13.0988 99.8022 9.50388 105.287 9.50388C110.772 9.50388 114.765 13.0988 114.765 18.1468C114.765 23.1949 110.833 26.8516 105.287 26.8516C99.7405 26.8516 95.8086 23.2282 95.8086 18.1468ZM108.82 18.1468C108.82 15.6062 107.3 14.1815 105.287 14.1815C103.273 14.1815 101.754 15.6062 101.754 18.1468C101.754 20.6875 103.302 22.1739 105.287 22.1739C107.272 22.1739 108.82 20.716 108.82 18.1468Z" fill="#021A7C"/>
<path d="M128.299 25.8875C127.278 26.5381 125.759 26.8468 124.211 26.8468C119.904 26.8468 117.425 24.7383 117.425 20.4358V6.03244H123.308V10.4014H127.117V14.7989H123.308V20.3741C123.308 21.6135 123.992 22.2926 125.042 22.2926C125.692 22.2926 126.343 22.1074 126.837 21.7655L128.295 25.8875H128.299Z" fill="#021A7C"/>
<path d="M129.32 24.6196L131.334 20.0987C133.252 21.3666 135.978 22.2357 138.49 22.2357C141.002 22.2357 142.023 21.5233 142.023 20.4691C142.023 17.0309 129.695 19.5383 129.695 11.4842C129.695 7.61384 132.853 4.45108 139.297 4.45108C142.118 4.45108 145.029 5.10168 147.166 6.34114L145.276 10.8953C143.201 9.77933 141.154 9.22371 139.269 9.22371C136.695 9.22371 135.769 10.0928 135.769 11.1755C135.769 14.4902 148.068 12.0113 148.068 20.0037C148.068 23.7838 144.91 27.0035 138.466 27.0035C134.905 27.0035 131.372 26.0443 129.33 24.6196H129.32Z" fill="#021A7C"/>
<path d="M177.984 9.77933V19.0397C177.984 24.026 174.978 26.8468 169.774 26.8468C167.542 26.8468 165.624 26.2912 164.227 24.7098C162.898 26.258 161.008 26.8468 158.714 26.8468C153.481 26.8468 150.537 24.026 150.537 19.0397V9.77933H156.421V18.6407C156.421 20.9962 157.195 22.0504 158.838 22.0504C160.481 22.0504 161.317 20.9962 161.317 18.6407V9.77933H167.2V18.6407C167.2 20.9962 168.036 22.0504 169.679 22.0504C171.322 22.0504 172.096 20.9962 172.096 18.6407V9.77933H177.98H177.984Z" fill="#021A7C"/>
<path d="M199.42 9.77931V26.5714H193.812V24.8998C192.696 26.2294 191.053 26.8516 188.854 26.8516C184.3 26.8516 180.615 23.5083 180.615 18.1468C180.615 12.7854 184.3 9.50388 188.854 9.50388C190.806 9.50388 192.387 10.0595 193.532 11.2372V9.77931H199.415H199.42ZM193.627 18.1421C193.627 15.6014 192.079 14.1768 190.094 14.1768C188.109 14.1768 186.561 15.6014 186.561 18.1421C186.561 20.6828 188.109 22.1692 190.094 22.1692C192.079 22.1692 193.627 20.7112 193.627 18.1421Z" fill="#021A7C"/>
<path d="M222 18.1754C222 23.5036 218.315 26.8468 213.761 26.8468C211.81 26.8468 210.228 26.258 209.084 25.0802V32.5787H203.2V9.77933H208.808V11.4509C209.924 10.1212 211.567 9.49915 213.766 9.49915C218.32 9.49915 222.005 12.8424 222.005 18.1706L222 18.1754ZM216.055 18.1754C216.055 15.6347 214.507 14.1768 212.522 14.1768C210.537 14.1768 208.989 15.6347 208.989 18.1754C208.989 20.716 210.537 22.1739 212.522 22.1739C214.507 22.1739 216.055 20.716 216.055 18.1754Z" fill="#021A7C"/>
</g>
<defs>
<clipPath id="clip0_17_302">
<rect width="222" height="33" fill="white" transform="translate(0 0.5)"/>
</clipPath>
</defs>
</svg>
