<svg width="113" height="40" viewBox="0 0 113 40" fill="none" xmlns="http://www.w3.org/2000/svg">
<path d="M58.423 19.0564V22.6057H54.4707V19.0564H58.423Z" fill="#19224C"/>
<path d="M84.5188 19.0564V22.6057H80.5664V19.0564H84.5188Z" fill="#19224C"/>
<path d="M35.4502 35.6192V24.4855H39.3748V27.3778C39.6348 26.707 40.0506 26.1041 40.5896 25.6162C41.1527 25.1132 41.8117 24.7231 42.5291 24.4681C43.3328 24.1837 44.1827 24.0438 45.0376 24.0551C46.3603 24.0551 47.5195 24.3341 48.5154 24.892C49.5017 25.4412 50.3056 26.2551 50.8317 27.2369C51.3807 28.2437 51.6556 29.3925 51.6564 30.6833V35.6192H47.7552V30.7917C47.7693 30.025 47.5859 29.2672 47.2217 28.5877C46.885 27.9633 46.3755 27.4435 45.7512 27.0873C45.0922 26.724 44.3451 26.5402 43.5883 26.555C42.8319 26.5437 42.0858 26.7273 41.4254 27.0873C40.7876 27.4412 40.2628 27.9605 39.9094 28.5877C39.529 29.271 39.3375 30.0392 39.3536 30.8166V35.6224L35.4502 35.6192Z" fill="#19224C"/>
<path d="M58.3941 24.4856H54.4707V35.6193H58.3941V24.4856Z" fill="#19224C"/>
<path d="M84.5045 24.4856H80.5811V40.0001H84.5045V24.4856Z" fill="#19224C"/>
<path d="M61.6509 35.6191V24.4855H65.5743V27.3778C65.8348 26.707 66.251 26.104 66.7903 25.6162C67.3522 25.1133 68.0101 24.7232 68.7264 24.4681C69.5298 24.1838 70.3793 24.0439 71.2339 24.0551C72.5565 24.0551 73.7161 24.334 74.7127 24.892C75.7002 25.4424 76.5049 26.2578 77.0312 27.2412C77.5803 28.248 77.8552 29.3968 77.8559 30.6876V35.6235H73.9547V30.7917C73.9692 30.0251 73.7861 29.2673 73.4223 28.5877C73.0857 27.9617 72.5754 27.4406 71.9496 27.084C71.2911 26.7206 70.5444 26.5367 69.7879 26.5517C69.0314 26.5403 68.2853 26.7239 67.625 27.084C66.9871 27.439 66.4627 27.9595 66.11 28.5877C65.7292 29.2708 65.5376 30.0391 65.5543 30.8166V35.6224L61.6509 35.6191Z" fill="#19224C"/>
<path d="M96.8596 35.2708C95.6407 35.7934 94.251 36.0547 92.6905 36.0547C91.6443 36.0696 90.6023 35.9232 89.6029 35.621C88.6878 35.3319 87.978 34.9406 87.4734 34.4469C86.9688 33.9533 86.7161 33.4113 86.7153 32.8208C86.7153 32.1703 86.9902 31.5687 87.54 31.0158C88.0898 30.4629 88.8579 30.0076 89.8441 29.6498C90.9341 29.2733 92.0694 29.0357 93.2218 28.943L98.8625 28.5093C99.0711 28.4858 99.2703 28.4112 99.4415 28.2925C99.5161 28.2457 99.5775 28.1816 99.6204 28.1059C99.6633 28.0302 99.6862 27.9453 99.6872 27.8589C99.6872 27.6283 99.5127 27.4075 99.1637 27.1965C98.8136 26.9862 98.339 26.8268 97.7366 26.7173C97.0854 26.6048 96.425 26.5503 95.7637 26.5547C94.8251 26.5563 93.8885 26.6398 92.9651 26.804C92.0756 26.9565 91.2027 27.1895 90.3576 27.5C89.5618 27.7985 88.932 28.1212 88.4681 28.4681L86.9965 26.4463C87.5893 25.996 88.3621 25.5862 89.315 25.2169C90.321 24.8319 91.3634 24.5443 92.4271 24.3583C93.5267 24.1574 94.6428 24.0555 95.7615 24.0537C97.0891 24.0403 98.4115 24.2196 99.6849 24.586C100.87 24.9416 101.814 25.4475 102.517 26.1037C103.219 26.76 103.568 27.5246 103.564 28.3977V35.6167H99.6405V33.184C99.0055 34.0534 98.0785 34.749 96.8596 35.2708ZM91.04 32.9769C91.3079 33.159 91.6902 33.2956 92.1882 33.3899C92.7509 33.49 93.3222 33.5375 93.8942 33.532C94.8332 33.5415 95.7688 33.4207 96.6729 33.1731C97.5124 32.9332 98.1926 32.6105 98.7135 32.205C99.2344 31.7996 99.5464 31.35 99.6494 30.8564V30.4228L94.0087 30.8564C93.4179 30.9041 92.8325 31.0024 92.2593 31.1502C91.8294 31.2501 91.4239 31.4313 91.0656 31.6836C90.7833 31.9004 90.6421 32.1259 90.6421 32.3579C90.6421 32.5899 90.7733 32.7959 91.04 32.9769Z" fill="#19224C"/>
<path d="M112.309 13.2239V16.6518H108.795V13.2239H112.309Z" fill="#19224C"/>
<path d="M35.3882 16.5715V7.915H31.8438L31.866 5.43783H35.3882V4.69848C35.3739 3.83083 35.6348 2.98006 36.1351 2.26251C36.633 1.54989 37.3392 0.995557 38.2535 0.599499C39.2349 0.187222 40.295 -0.0167644 41.3634 0.00107712C42.3001 -0.00972409 43.2327 0.122322 44.1276 0.392437C44.8889 0.615791 45.5948 0.989613 46.2016 1.49063C46.7506 1.96257 47.0841 2.49523 47.2019 3.08859L43.7675 3.9808C43.6302 3.5546 43.3438 3.18896 42.9583 2.94766C42.5318 2.67459 42.0302 2.53433 41.5201 2.54546C40.808 2.54546 40.2619 2.77023 39.8818 3.21977C39.5017 3.6693 39.312 4.25616 39.3128 4.98034V5.43783H46.4261V7.915H39.3128V16.5704L35.3882 16.5715Z" fill="#19224C"/>
<path d="M49.2324 16.5714V0.43457H53.1337V16.5714H49.2324Z" fill="#19224C"/>
<path d="M77.9179 8.89617C78.4805 8.90864 79.0158 9.13541 79.4093 9.52796C79.8027 9.92051 80.0229 10.4477 80.0229 10.9966C80.0229 11.5456 79.8027 12.0727 79.4093 12.4653C79.0158 12.8578 78.4805 13.0846 77.9179 13.097H60.8925C60.3299 13.0846 59.7946 12.8578 59.4011 12.4653C59.0077 12.0727 58.7875 11.5456 58.7875 10.9966C58.7875 10.4477 59.0077 9.92051 59.4011 9.52796C59.7946 9.13541 60.3299 8.90864 60.8925 8.89617H77.9179ZM77.9179 5.42705H60.8925C59.38 5.43277 57.9311 6.02152 56.8617 7.06494C55.7924 8.10836 55.1894 9.52182 55.1841 10.9971C55.1885 12.474 55.7919 13.8891 56.8625 14.9334C57.9332 15.9776 59.384 16.5662 60.8981 16.5705H77.9179C79.4318 16.5659 80.8823 15.9772 81.9527 14.933C83.0231 13.8887 83.6264 12.4738 83.6308 10.9971C83.6272 9.52005 83.0243 8.10438 81.9538 7.0596C80.8833 6.01483 79.4322 5.42592 77.9179 5.42163V5.42705Z" fill="#19224C"/>
<path d="M88.5791 16.5716L85.666 5.42163H89.5561L91.779 14.8771L93.9597 5.42163H99.3859L101.609 14.9855L103.811 5.42163H107.657L104.855 16.5716H98.7423L96.695 7.15619L94.6266 16.5694L88.5791 16.5716Z" fill="#19224C"/>
<path d="M27.024 28.6018V35.5844H20.0635V28.6018H27.024Z" fill="#19224C"/>
<path d="M7.77403 0C12.6532 0 15.1733 3.2219 17.916 3.2219C19.6776 3.2219 20.0634 2.14867 20.0634 0H27.0349C27.0349 3.2219 26.1222 10.2045 19.2587 10.2045C14.3795 10.2045 11.8617 6.98042 9.11674 6.98042C7.35292 6.98042 6.9737 8.05585 6.9737 10.2045H0C0 6.98041 0.912776 0 7.77403 0ZM7.77403 12.8876C12.6532 12.8876 15.1733 16.1095 17.916 16.1095C19.6798 16.1095 20.0612 15.0363 20.0612 12.8876H27.0327C27.0327 16.1095 26.12 23.0921 19.2565 23.0921C14.3773 23.0921 11.8595 19.8702 9.11454 19.8702C7.35072 19.8702 6.9715 20.9435 6.9715 23.0921H0C0 19.8746 0.912776 12.8876 7.77403 12.8876Z" fill="#19224C"/>
</svg>
