<svg width="40" height="40" viewBox="0 0 40 40" fill="none" xmlns="http://www.w3.org/2000/svg">
<circle cx="20" cy="20" r="20" fill="#005BF3" fill-opacity="0.04"/>
<circle cx="20" cy="20" r="15" fill="#CADBF8"/>
<mask id="mask0_118_160" style="mask-type:alpha" maskUnits="userSpaceOnUse" x="9" y="9" width="22" height="22">
<rect x="9" y="9" width="22" height="22" fill="#005BF3"/>
</mask>
<g mask="url(#mask0_118_160)">
<path d="M27.2875 28.25C25.3167 28.25 23.3955 27.8108 21.524 26.9323C19.6524 26.0538 17.9948 24.8927 16.551 23.449C15.1073 22.0052 13.9462 20.3476 13.0677 18.476C12.1892 16.6045 11.75 14.6833 11.75 12.7125C11.75 12.4375 11.8417 12.2083 12.025 12.025C12.2083 11.8417 12.4375 11.75 12.7125 11.75H16.425C16.6389 11.75 16.8299 11.8188 16.9979 11.9563C17.166 12.0938 17.2653 12.2694 17.2958 12.4833L17.8917 15.6917C17.9222 15.9056 17.9184 16.1003 17.8802 16.276C17.842 16.4517 17.7542 16.6083 17.6167 16.7458L15.3938 18.9917C16.0354 20.0917 16.8413 21.1229 17.8115 22.0854C18.7816 23.0479 19.8472 23.8806 21.0083 24.5833L23.1625 22.4292C23.3 22.2917 23.4795 22.1885 23.701 22.1198C23.9226 22.051 24.1403 22.0319 24.3542 22.0625L27.5167 22.7042C27.7306 22.75 27.9062 22.8531 28.0438 23.0135C28.1813 23.174 28.25 23.3611 28.25 23.575V27.2875C28.25 27.5625 28.1583 27.7917 27.975 27.975C27.7917 28.1583 27.5625 28.25 27.2875 28.25ZM14.5229 17.25L16.0354 15.7375L15.6458 13.5833H13.6063C13.6826 14.2097 13.7896 14.8285 13.9271 15.4396C14.0646 16.0507 14.2632 16.6542 14.5229 17.25ZM22.7271 25.4542C23.3229 25.7139 23.9302 25.9201 24.549 26.0729C25.1677 26.2257 25.7903 26.325 26.4167 26.3708V24.3542L24.2625 23.9188L22.7271 25.4542Z" fill="#005BF3"/>
</g>
</svg>
