<svg width="44" height="44" viewBox="0 0 44 44" fill="none" xmlns="http://www.w3.org/2000/svg">
<mask id="mask0_17_331" style="mask-type:alpha" maskUnits="userSpaceOnUse" x="0" y="0" width="44" height="44">
<rect width="44" height="44" fill="#D9D9D9"/>
</mask>
<g mask="url(#mask0_17_331)">
<path d="M22.0003 38.5C21.4503 38.5 20.9232 38.4007 20.4191 38.2021C19.9149 38.0035 19.4642 37.7056 19.067 37.3083L7.47116 25.6667H12.6503L21.6795 34.6958C21.7406 34.7569 21.7941 34.7951 21.8399 34.8104C21.8857 34.8257 21.9392 34.8333 22.0003 34.8333C22.0614 34.8333 22.1149 34.8257 22.1607 34.8104C22.2066 34.7951 22.26 34.7569 22.3212 34.6958L34.5587 22.4125C35.2614 21.7097 35.7962 20.8771 36.1628 19.9146C36.5295 18.9521 36.7128 17.9667 36.7128 16.9583C36.6517 14.85 35.9489 13.0396 34.6045 11.5271C33.26 10.0146 31.5795 9.25833 29.5628 9.25833C28.6156 9.25833 27.7066 9.44167 26.8357 9.80833C25.9649 10.175 25.2087 10.7097 24.567 11.4125L23.3295 12.7417C23.1767 12.925 22.9781 13.0701 22.7337 13.1771C22.4892 13.284 22.2448 13.3375 22.0003 13.3375C21.7559 13.3375 21.5114 13.284 21.267 13.1771C21.0225 13.0701 20.8087 12.925 20.6253 12.7417L19.3878 11.4125C18.7462 10.7097 17.9975 10.1597 17.142 9.7625C16.2864 9.36528 15.3698 9.16667 14.392 9.16667C12.742 9.16667 11.3135 9.69375 10.1066 10.7479C8.89963 11.8021 8.08227 13.1083 7.65449 14.6667H3.89616C4.4156 12.0694 5.63019 9.89236 7.53991 8.13542C9.44963 6.37847 11.7337 5.5 14.392 5.5C15.8587 5.5 17.2413 5.79028 18.5399 6.37083C19.8385 6.95139 20.992 7.76111 22.0003 8.8C22.9781 7.76111 24.1163 6.95139 25.4149 6.37083C26.7135 5.79028 28.0962 5.5 29.5628 5.5C32.6184 5.5 35.1774 6.63056 37.2399 8.89167C39.3024 11.1528 40.3337 13.8417 40.3337 16.9583C40.3337 18.4556 40.0739 19.8917 39.5545 21.2667C39.035 22.6417 38.2559 23.8639 37.217 24.9333L24.8878 37.3083C24.4906 37.7056 24.0475 38.0035 23.5587 38.2021C23.0698 38.4007 22.5503 38.5 22.0003 38.5ZM21.7712 22H3.66699V18.3333H29.1045C29.6239 18.3333 30.0594 18.1576 30.4107 17.8063C30.7621 17.4549 30.9378 17.0194 30.9378 16.5C30.9378 15.9806 30.7621 15.5451 30.4107 15.1938C30.0594 14.8424 29.6239 14.6667 29.1045 14.6667C28.6767 14.6667 28.2948 14.7812 27.9587 15.0104C27.6225 15.2396 27.4087 15.5681 27.317 15.9958L23.7878 15.0333C24.1239 13.8417 24.7809 12.8715 25.7587 12.1229C26.7364 11.3743 27.8517 11 29.1045 11C30.6323 11 31.9309 11.5347 33.0003 12.6042C34.0698 13.6736 34.6045 14.9722 34.6045 16.5C34.6045 18.0278 34.0698 19.3264 33.0003 20.3958C31.9309 21.4653 30.6323 22 29.1045 22H26.9503C27.042 22.3056 27.1184 22.6035 27.1795 22.8938C27.2406 23.184 27.2712 23.4972 27.2712 23.8333C27.2712 25.3611 26.7364 26.6597 25.667 27.7292C24.5975 28.7986 23.2989 29.3333 21.7712 29.3333C20.5184 29.3333 19.4031 28.959 18.4253 28.2104C17.4475 27.4618 16.7906 26.4917 16.4545 25.3L19.9837 24.3375C20.0753 24.7653 20.2892 25.0938 20.6253 25.3229C20.9614 25.5521 21.3434 25.6667 21.7712 25.6667C22.2906 25.6667 22.726 25.491 23.0774 25.1396C23.4288 24.7882 23.6045 24.3528 23.6045 23.8333C23.6045 23.3139 23.4288 22.8785 23.0774 22.5271C22.726 22.1757 22.2906 22 21.7712 22Z" fill="#005BF3"/>
</g>
</svg>
